<?xml version="1.0" encoding="UTF-8" standalone="no"?>
<!-- Created with Inkscape (http://www.inkscape.org/) -->

<svg
   xmlns:dc="http://purl.org/dc/elements/1.1/"
   xmlns:cc="http://creativecommons.org/ns#"
   xmlns:rdf="http://www.w3.org/1999/02/22-rdf-syntax-ns#"
   xmlns:svg="http://www.w3.org/2000/svg"
   xmlns="http://www.w3.org/2000/svg"
   xmlns:sodipodi="http://sodipodi.sourceforge.net/DTD/sodipodi-0.dtd"
   xmlns:inkscape="http://www.inkscape.org/namespaces/inkscape"
   version="1.1"
   id="svg2"
   width="347.72787"
   height="259.96997"
   viewBox="0 0 347.72787 259.96997"
   sodipodi:docname="Entel Chile 2018.svg"
   inkscape:version="0.92.4 (5da689c313, 2019-01-14)">
  <metadata
     id="metadata8">
    <rdf:RDF>
      <cc:Work
         rdf:about="">
        <dc:format>image/svg+xml</dc:format>
        <dc:type
           rdf:resource="http://purl.org/dc/dcmitype/StillImage" />
        <dc:title></dc:title>
      </cc:Work>
    </rdf:RDF>
  </metadata>
  <defs
     id="defs6" />
  <sodipodi:namedview
     pagecolor="#ffffff"
     bordercolor="#666666"
     borderopacity="1"
     objecttolerance="10"
     gridtolerance="10"
     guidetolerance="10"
     inkscape:pageopacity="0"
     inkscape:pageshadow="2"
     inkscape:window-width="640"
     inkscape:window-height="480"
     id="namedview4"
     showgrid="false"
     inkscape:zoom="0.90769231"
     inkscape:cx="10.94915"
     inkscape:cy="131.10669"
     inkscape:window-x="0"
     inkscape:window-y="0"
     inkscape:window-maximized="0"
     inkscape:current-layer="svg2" />
  <g
     id="g12"
     transform="translate(0,-0.03503252)">
    <path
       style="fill:#b3cdfe;stroke-width:1.33333337"
       d="M 88.068376,257.23104 C 59.622359,251.11701 37.157451,237.51848 23.370664,218.06797 7.1212576,195.14319 0,168.20757 0,129.6702 0,72.552371 21.291236,32.006685 61.834827,11.91587 79.142337,3.3393727 94.39236,0.03503252 116.66667,0.03503252 c 35.39902,0 60.88718,9.63669788 82.78102,31.29830048 16.94608,16.766316 27.45951,37.499142 31.88539,62.879026 1.97897,11.348221 2.79231,46.172151 1.17672,50.382291 -2.01195,5.24306 -4.00936,5.38434 -85.84313,6.07202 l -79.333337,0.66666 -0.421922,5.13591 c -0.232058,2.82475 0.869824,9.38869 2.448625,14.58655 2.520393,8.29785 3.954321,10.52729 11.755256,18.27688 13.062055,12.97606 20.118578,15.34574 45.551378,15.29677 23.0111,-0.0443 28.65072,-1.67111 45.82976,-13.22011 C 178.55816,187.3342 184.38092,184 185.43589,184 c 1.05498,0 9.56348,7.24921 18.90779,16.10936 20.05464,19.01555 20.39075,19.94641 9.98965,27.66676 -16.34545,12.1326 -38.41618,22.92815 -58.16374,28.44984 -15.18728,4.24659 -50.58894,4.76907 -68.101214,1.00508 z M 166.66667,102.73229 c 0,-1.43057 -0.66875,-5.780566 -1.48612,-9.666662 -3.49631,-16.622924 -12.7919,-28.577077 -27.61368,-35.511275 -6.61485,-3.094676 -9.24439,-3.53855 -20.9002,-3.528025 -11.83784,0.01067 -14.26568,0.44052 -21.645753,3.83222 -9.291514,4.270149 -19.254356,13.888609 -22.618172,21.836339 -2.91648,6.8908 -5.701332,17.587553 -5.720253,21.971783 l -0.01582,3.66666 h 50.000008 c 48.69057,0 50,-0.0681 50,-2.60104 z m 108.40256,141.37588 c -13.97918,-11.85154 -21.7359,-19.65744 -21.7359,-21.87369 0,-1.19973 3.69687,-6.24329 8.21526,-11.20791 14.95784,-16.43502 24.0284,-32.75973 29.46337,-53.02657 3.93521,-14.67428 3.82792,-39.37344 -0.23748,-54.66667 -5.19684,-19.549463 -12.888,-33.121926 -27.76109,-48.989471 -8.28148,-8.835198 -8.39258,-9.052584 -6.47314,-12.666667 2.01432,-3.792755 19.95392,-20.691484 26.47532,-24.939199 7.627,-4.967852 17.37862,0.990351 32.44938,19.826471 36.58496,45.725544 42.6852,113.528086 15.07105,167.510466 -7.48096,14.62438 -21.33055,32.54435 -31.58595,40.86903 -9.76678,7.92807 -13.7063,7.79019 -23.88082,-0.83579 z"
       id="path26"
       inkscape:connector-curvature="0" />
    <path
       style="fill:#8cb4fe;stroke-width:1.33333337"
       d="M 96.779664,258.52451 C 48.540716,251.48887 17.135672,223.74755 5.4256745,177.82789 -2.4333643,147.00941 -1.5894517,105.4632 7.4586169,77.745201 13.694213,58.642973 22.037923,44.602643 34.626485,32.028619 55.704796,10.974654 77.018629,2.1187112 110.81701,0.37129763 159.07679,-2.1237868 199.52792,19.419696 218.99571,57.985157 c 9.66886,19.153931 12.92952,33.87072 13.88766,62.681513 l 0.75383,22.66666 -3.59201,3.33334 -3.59202,3.33333 -80.07021,0.36404 -80.070212,0.36404 0.650728,9.09477 c 1.562959,21.84442 16.501363,38.51611 39.703194,44.30992 4.03333,1.00718 13.38791,1.77676 20.78796,1.71018 15.91425,-0.1432 28.07326,-3.37622 39.21204,-10.42628 17.31661,-10.9602 18.57029,-11.60306 20.50113,-10.51244 4.8788,2.75573 34.16553,31.56625 34.16553,33.60998 0,6.70838 -29.01394,24.85938 -54.20054,33.90763 -19.5361,7.01832 -47.46469,9.44093 -70.353126,6.10267 z M 166.31807,99 c -2.58752,-27.59202 -22.23931,-45.666667 -49.6514,-45.666667 -17.188825,0 -32.543357,7.487656 -40.744481,19.869094 -4.718953,7.124318 -9.255522,20.981448 -9.255522,28.271353 v 5.19289 h 50.185183 50.18519 z m 108.75116,145.10817 c -13.97918,-11.85154 -21.7359,-19.65744 -21.7359,-21.87369 0,-1.19973 3.69687,-6.24329 8.21526,-11.20791 14.95784,-16.43502 24.0284,-32.75973 29.46337,-53.02657 3.93521,-14.67428 3.82792,-39.37344 -0.23748,-54.66667 -5.19684,-19.549463 -12.888,-33.121926 -27.76109,-48.989471 -8.28148,-8.835198 -8.39258,-9.052584 -6.47314,-12.666667 2.01432,-3.792755 19.95392,-20.691484 26.47532,-24.939199 7.627,-4.967852 17.37862,0.990351 32.44938,19.826471 36.58496,45.725544 42.6852,113.528086 15.07105,167.510466 -7.48096,14.62438 -21.33055,32.54435 -31.58595,40.86903 -9.76678,7.92807 -13.7063,7.79019 -23.88082,-0.83579 z"
       id="path24"
       inkscape:connector-curvature="0" />
    <path
       style="fill:#6299fe;stroke-width:1.33333337"
       d="M 98.111327,258.60375 C 43.563979,250.09888 12.347712,219.20309 2.5262491,164 0.1696374,150.75429 0.15005552,111.60123 2.4935735,98.666667 11.687234,47.924165 40.460043,14.817787 85.029536,3.6996861 94.531796,1.329296 100.45804,0.80446611 117.33333,0.83885089 c 17.89904,0.0364707 22.37543,0.50034551 33.42644,3.46389021 23.54035,6.3127999 42.50552,18.2739179 56.10078,35.3821139 18.09558,22.771378 26.47278,50.75586 26.47278,88.433685 0,12.33519 -0.36096,14.64739 -2.76344,17.70165 l -2.76344,3.51314 h -74.3838 c -40.91108,0 -77.240565,0.39156 -80.732173,0.87015 l -6.34838,0.87013 0.611995,9.53618 c 1.96218,30.57494 31.368185,49.54912 69.817698,45.04973 14.19086,-1.66061 24.65221,-5.81168 37.68416,-14.95308 4.21294,-2.9552 9.05025,-5.37311 10.74957,-5.37311 3.85408,0 36.12781,29.83182 36.12781,33.39428 0,7.96344 -39.75729,30.17834 -66.66666,37.25086 -12.84027,3.37476 -42.82219,4.76652 -56.555343,2.62528 z M 167.20244,102.33333 C 164.94088,88.924908 163.53647,84.170265 159.72557,77.020283 155.04147,68.232017 147.787,61.587955 137.89379,57.025492 132.33133,54.460249 129.09792,54 116.63863,54 c -13.9031,0 -15.17188,0.234913 -23.552594,4.360725 -10.323884,5.082431 -16.004957,11.029666 -21.256888,22.252784 -3.476153,7.42837 -6.953533,23.817661 -5.386063,25.385131 0.367415,0.36741 23.353026,0.66803 51.079135,0.66803 h 50.41111 z m 107.86679,141.77484 c -13.97918,-11.85154 -21.7359,-19.65744 -21.7359,-21.87369 0,-1.19973 3.69687,-6.24329 8.21526,-11.20791 14.95784,-16.43502 24.0284,-32.75973 29.46337,-53.02657 3.93521,-14.67428 3.82792,-39.37344 -0.23748,-54.66667 -5.19684,-19.549463 -12.888,-33.121926 -27.76109,-48.989471 -8.28148,-8.835198 -8.39258,-9.052584 -6.47314,-12.666667 2.01432,-3.792755 19.95392,-20.691484 26.47532,-24.939199 7.627,-4.967852 17.37862,0.990351 32.44938,19.826471 36.58496,45.725544 42.6852,113.528086 15.07105,167.510466 -7.48096,14.62438 -21.33055,32.54435 -31.58595,40.86903 -9.76678,7.92807 -13.7063,7.79019 -23.88082,-0.83579 z"
       id="path22"
       inkscape:connector-curvature="0" />
    <path
       style="fill:#fe8b69;stroke-width:1.33333337"
       d="M 101.33566,258.59051 C 39.787017,250.89172 6.8083805,214.22977 1.2350922,147.30993 -4.1182816,83.030651 19.048557,32.701193 63.646655,11.722158 79.813928,4.1170403 95.489053,0.96972323 117.33333,0.94272293 153.09757,0.89851707 179.65801,11.363995 201.11829,33.956087 c 21.56876,22.706296 31.02928,49.73975 31.37352,89.649903 0.15371,17.82073 -0.11306,20.5622 -2.20509,22.66666 -2.22148,2.23462 -7.69619,2.4384 -82.22319,3.06068 -43.91378,0.36667 -80.342802,1.16704 -80.953383,1.7786 -1.922119,1.92522 -0.60046,15.03514 2.296266,22.77734 3.406671,9.10513 13.266787,20.23909 22.256616,25.13197 13.412021,7.29973 35.397691,9.63515 53.862281,5.72149 10.08962,-2.13854 16.84121,-5.30938 28.96305,-13.60228 4.6686,-3.19392 9.4686,-5.80212 10.66667,-5.79601 2.26632,0.012 32.8126,27.07128 35.02792,31.02981 1.93778,3.46263 -0.64015,6.93142 -9.74775,13.11627 -19.07709,12.955 -38.53896,21.96053 -57.37199,26.54755 -12.98897,3.16362 -37.26486,4.36149 -51.72755,2.55244 z m 66.64119,-154.25718 c -0.0524,-5.285253 -3.97036,-20.426838 -6.63902,-25.657855 -4.25194,-8.334479 -12.74447,-16.864539 -20.48248,-20.572986 -26.03215,-12.475912 -56.66923,-3.32259 -68.859843,20.572986 -2.668666,5.231017 -6.586582,20.372602 -6.639022,25.657855 -0.02165,2.18222 3.301362,2.33334 51.310185,2.33334 48.00881,0 51.33184,-0.15112 51.31018,-2.33334 z m 107.09238,139.77484 c -13.97918,-11.85154 -21.7359,-19.65744 -21.7359,-21.87369 0,-1.19973 3.69687,-6.24329 8.21526,-11.20791 14.95784,-16.43502 24.0284,-32.75973 29.46337,-53.02657 3.93521,-14.67428 3.82792,-39.37344 -0.23748,-54.66667 -5.19684,-19.549463 -12.888,-33.121926 -27.76109,-48.989471 -8.28148,-8.835198 -8.39258,-9.052584 -6.47314,-12.666667 2.01432,-3.792755 19.95392,-20.691484 26.47532,-24.939199 7.627,-4.967852 17.37862,0.990351 32.44938,19.826471 36.58496,45.725544 42.6852,113.528086 15.07105,167.510466 -7.48096,14.62438 -21.33055,32.54435 -31.58595,40.86903 -9.76678,7.92807 -13.7063,7.79019 -23.88082,-0.83579 z"
       id="path20"
       inkscape:connector-curvature="0" />
    <path
       style="fill:#fe521e;stroke-width:1.33333337"
       d="M 101.33566,258.59051 C 39.787017,250.89172 6.8083805,214.22977 1.2350922,147.30993 -4.1182816,83.030651 19.048557,32.701193 63.646655,11.722158 79.813928,4.1170403 95.489053,0.96972323 117.33333,0.94272293 153.09757,0.89851707 179.65801,11.363995 201.11829,33.956087 c 21.56876,22.706296 31.02928,49.73975 31.37352,89.649903 0.15371,17.82073 -0.11306,20.5622 -2.20509,22.66666 -2.22148,2.23462 -7.69619,2.4384 -82.22319,3.06068 -43.91378,0.36667 -80.342802,1.16704 -80.953383,1.7786 -1.922119,1.92522 -0.60046,15.03514 2.296266,22.77734 3.406671,9.10513 13.266787,20.23909 22.256616,25.13197 13.412021,7.29973 35.397691,9.63515 53.862281,5.72149 10.08962,-2.13854 16.84121,-5.30938 28.96305,-13.60228 4.6686,-3.19392 9.4686,-5.80212 10.66667,-5.79601 2.26632,0.012 32.8126,27.07128 35.02792,31.02981 1.93778,3.46263 -0.64015,6.93142 -9.74775,13.11627 -19.07709,12.955 -38.53896,21.96053 -57.37199,26.54755 -12.98897,3.16362 -37.26486,4.36149 -51.72755,2.55244 z m 66.64119,-154.25718 c -0.0524,-5.285253 -3.97036,-20.426838 -6.63902,-25.657855 -4.25194,-8.334479 -12.74447,-16.864539 -20.48248,-20.572986 -26.03215,-12.475912 -56.66923,-3.32259 -68.859843,20.572986 -2.668666,5.231017 -6.586582,20.372602 -6.639022,25.657855 -0.02165,2.18222 3.301362,2.33334 51.310185,2.33334 48.00881,0 51.33184,-0.15112 51.31018,-2.33334 z M 282,249.08619 c -1.46667,-0.82467 -8.21667,-6.56476 -15,-12.75576 -15.3144,-13.97712 -15.42343,-14.7305 -3.89992,-26.94603 29.9164,-31.71296 39.31539,-75.61232 24.97219,-116.636144 C 282.93803,78.063553 274.17592,64.690931 261.66923,52.452261 258.55116,49.401005 256,45.782224 256,44.410524 c 0,-2.357335 7.45116,-10.213208 21.63688,-22.8121 C 282.93599,16.892075 284.84223,16 289.59996,16 c 5.33145,0 6.28248,0.637668 16.4056,11 20.85727,21.350117 33.41252,46.326528 38.77295,77.13178 2.98593,17.1596 1.97662,50.47511 -2.01019,66.35233 -6.42609,25.59145 -17.50219,46.19938 -34.61631,64.40632 -14.2926,15.20524 -19.41321,17.9848 -26.15201,14.19576 z"
       id="path18"
       inkscape:connector-curvature="0" />
    <path
       style="fill:#005bfe;stroke-width:1.33333337"
       d="M 101.33566,258.59051 C 39.787017,250.89172 6.8083805,214.22977 1.2350922,147.30993 -4.1182816,83.030651 19.048557,32.701193 63.646655,11.722158 79.813928,4.1170403 95.489053,0.96972323 117.33333,0.94272293 153.09757,0.89851707 179.65801,11.363995 201.11829,33.956087 c 21.56876,22.706296 31.02928,49.73975 31.37352,89.649903 0.15371,17.82073 -0.11306,20.5622 -2.20509,22.66666 -2.22148,2.23462 -7.69619,2.4384 -82.22319,3.06068 -43.91378,0.36667 -80.342802,1.16704 -80.953383,1.7786 -1.922119,1.92522 -0.60046,15.03514 2.296266,22.77734 3.406671,9.10513 13.266787,20.23909 22.256616,25.13197 13.412021,7.29973 35.397691,9.63515 53.862281,5.72149 10.08962,-2.13854 16.84121,-5.30938 28.96305,-13.60228 4.6686,-3.19392 9.4686,-5.80212 10.66667,-5.79601 2.26632,0.012 32.8126,27.07128 35.02792,31.02981 1.93778,3.46263 -0.64015,6.93142 -9.74775,13.11627 -19.07709,12.955 -38.53896,21.96053 -57.37199,26.54755 -12.98897,3.16362 -37.26486,4.36149 -51.72755,2.55244 z m 66.64119,-154.25718 c -0.0524,-5.285253 -3.97036,-20.426838 -6.63902,-25.657855 -4.25194,-8.334479 -12.74447,-16.864539 -20.48248,-20.572986 -26.03215,-12.475912 -56.66923,-3.32259 -68.859843,20.572986 -2.668666,5.231017 -6.586582,20.372602 -6.639022,25.657855 -0.02165,2.18222 3.301362,2.33334 51.310185,2.33334 48.00881,0 51.33184,-0.15112 51.31018,-2.33334 z m 115.71306,145.25858 c -1.27056,-0.51911 -8.32056,-6.26667 -15.66667,-12.77235 -9.01091,-7.98 -13.35657,-12.74944 -13.35657,-14.65905 0,-1.60954 3.255,-6.28078 7.54576,-10.82887 22.9614,-24.33849 33.54346,-52.46243 32.07437,-85.24401 -1.26716,-28.275722 -10.22553,-50.300347 -28.42929,-69.894939 -7.50684,-8.080396 -9.84619,-11.461214 -9.2438,-13.359146 0.44356,-1.397541 6.8566,-8.006809 14.2512,-14.687264 15.7579,-14.236065 18.51854,-15.000841 28.01182,-7.760077 18.66374,14.235312 36.45767,44.503595 43.87784,74.638223 3.48862,14.167823 4.81108,42.902683 2.70082,58.683293 -4.05398,30.31559 -17.18442,59.31765 -36.34931,80.28709 -12.00769,13.13834 -19.77207,17.90308 -25.41617,15.5971 z"
       id="path16"
       inkscape:connector-curvature="0" />
    <path
       style="fill:#fe3c00;stroke-width:1.33333337"
       d="m 283.68991,249.59191 c -1.27056,-0.51911 -8.32056,-6.26667 -15.66667,-12.77235 -9.01091,-7.98 -13.35657,-12.74944 -13.35657,-14.65905 0,-1.60954 3.255,-6.28078 7.54576,-10.82887 22.9614,-24.33849 33.54346,-52.46243 32.07437,-85.24401 -1.26716,-28.275722 -10.22553,-50.300347 -28.42929,-69.894939 -7.50684,-8.080396 -9.84619,-11.461214 -9.2438,-13.359146 0.44356,-1.397541 6.8566,-8.006809 14.2512,-14.687264 15.7579,-14.236065 18.51854,-15.000841 28.01182,-7.760077 18.66374,14.235312 36.45767,44.503595 43.87784,74.638223 3.48862,14.167823 4.81108,42.902683 2.70082,58.683293 -4.05398,30.31559 -17.18442,59.31765 -36.34931,80.28709 -12.00769,13.13834 -19.77207,17.90308 -25.41617,15.5971 z"
       id="path14"
       inkscape:connector-curvature="0" />
  </g>
</svg>
